<?xml version="1.0" encoding="UTF-8" standalone="no"?>
<svg
   width="583.38843"
   height="716.77521"
   viewBox="0 0 17.501653 21.503256"
   fill="none"
   version="1.1"
   id="svg1"
   xmlns="http://www.w3.org/2000/svg">
  <defs
     id="defs1" />
  <path
     d="m 12.750827,2.7524281 c 0.93,0 1.395,0 1.7765,0.10222 1.0352,0.2774 1.8439,1.08605 2.1213,2.12132 0.1022,0.3815 0.1022,0.84649 0.1022,1.77646 v 9.1999999 c 0,1.6802 0,2.5202 -0.327,3.162 -0.2876,0.5645 -0.7465,1.0234 -1.311,1.311 -0.6418,0.327 -1.4818,0.327 -3.162,0.327 H 5.5508268 c -1.68016,0 -2.52024,0 -3.16197,-0.327 -0.56449,-0.2876 -1.02343,-0.7465 -1.31105,-1.311 -0.32698003,-0.6418 -0.32698003,-1.4818 -0.32698003,-3.162 V 6.7524281 c 0,-0.92997 0,-1.39496 0.10222,-1.77646 0.27740003,-1.03527 1.08605003,-1.84392 2.12132003,-2.12132 0.3815,-0.10222 0.84649,-0.10222 1.77646,-0.10222 m 4,11.4999999 V 9.7524281 c 0,-0.8284 0.6716,-1.5 1.5000002,-1.5 0.8284,0 1.5,0.6716 1.5,1.5 v 4.4999999 c 0,1.6569 -1.3431,3 -3.0000002,3 -1.6569,0 -3,-1.3431 -3,-3 v -4 m 0.6,-5.4999999 h 4.8000002 c 0.5601,0 0.8401,0 1.054,-0.10899 0.1882,-0.09588 0.3411,-0.24886 0.437,-0.43702 0.109,-0.21391 0.109,-0.49394 0.109,-1.05399 v -0.8 c 0,-0.56005 0,-0.84008 -0.109,-1.05399 -0.0959,-0.18816 -0.2488,-0.34113998 -0.437,-0.43701998 -0.2139,-0.10899 -0.4939,-0.10899 -1.054,-0.10899 H 6.3508268 c -0.56005,0 -0.84008,0 -1.05399,0.10899 -0.18816,0.09588 -0.34114,0.24885998 -0.43702,0.43701998 -0.10899,0.21391 -0.10899,0.49394 -0.10899,1.05399 v 0.8 c 0,0.56005 0,0.84008 0.10899,1.05399 0.09588,0.18816 0.24886,0.34114 0.43702,0.43702 0.21391,0.10899 0.49394,0.10899 1.05399,0.10899 z"
     stroke="#ffffff"
     stroke-width="1.5"
     stroke-linecap="round"
     stroke-linejoin="round"
     id="path1" />
</svg>
